<?xml version="1.0" standalone="no"?><!DOCTYPE svg PUBLIC "-//W3C//DTD SVG 1.1//EN" "http://www.w3.org/Graphics/SVG/1.1/DTD/svg11.dtd"><svg t="1586485607776" class="icon" viewBox="0 0 1024 1024" version="1.1" xmlns="http://www.w3.org/2000/svg" p-id="3622" xmlns:xlink="http://www.w3.org/1999/xlink" width="200" height="200"><defs><style type="text/css"></style></defs><path d="M785.2544 51.2h-50.5344a23.1424 23.1424 0 0 0-22.784 23.3984c0 12.8 10.24 23.3472 22.784 23.3472h50.5344c50.0736 0 90.8288 41.8816 90.8288 93.44V775.68c0 51.5584-40.9088 93.44-91.0848 93.44H238.8992c-50.176 0-90.9824-41.8816-90.9824-93.44V191.3856c0-51.5584 40.7552-93.44 90.9824-93.44H292.352a23.1424 23.1424 0 0 0 22.7328-23.3472c0-12.8512-10.24-23.3984-22.7328-23.3984H238.8992C163.6352 51.2 102.4 114.1248 102.4 191.3856V775.68c0 77.2608 61.2864 140.1856 136.4992 140.1856h546.2016c75.264 0 136.4992-62.9248 136.4992-140.1856V191.3856C921.4976 114.0736 860.3136 51.2 785.2544 51.2z" fill="#ffffff" p-id="3623"></path><path d="M712.96 492.544h-401.92c-14.6944 0-26.624 10.9056-26.624 24.1664 0 13.312 11.9296 24.1664 26.624 24.1664h401.92c14.6944 0 26.624-10.9056 26.624-24.1664 0-13.4144-11.9296-24.1152-26.624-24.1152zM425.3184 123.5456h172.3904c22.6304 0 40.96-16.1792 40.96-36.1472 0-19.968-18.3296-36.1472-40.96-36.1472H425.3184c-22.6304 0-40.96 16.1792-40.96 36.1472-0.1536 19.8656 18.2272 36.1472 40.96 36.1472z m287.6416 562.0736h-401.92c-14.6944 0-26.624 10.752-26.624 24.1664 0 13.2608 11.9296 24.1152 26.624 24.1152h401.92c14.6944 0 26.624-10.8544 26.624-24.1152 0-13.4144-11.9296-24.1664-26.624-24.1664z m0-386.1504h-401.92c-14.6944 0-26.624 10.9056-26.624 24.1664 0 13.312 11.9296 24.1664 26.624 24.1664h401.92c14.6944 0 26.624-10.9056 26.624-24.1664 0-13.312-11.9296-24.1664-26.624-24.1664z" fill="#ffffff" p-id="3624"></path></svg>