<?xml version="1.0" standalone="no"?><!DOCTYPE svg PUBLIC "-//W3C//DTD SVG 1.1//EN" "http://www.w3.org/Graphics/SVG/1.1/DTD/svg11.dtd"><svg t="1572403271310" class="icon" viewBox="0 0 1024 1024" version="1.1" xmlns="http://www.w3.org/2000/svg" p-id="2080" width="16" height="16" xmlns:xlink="http://www.w3.org/1999/xlink"><defs><style type="text/css"></style></defs><path d="M937.472 102.4H91.136c-46.08 0-83.456 37.376-83.456 83.456v655.872c0 46.08 37.376 83.456 83.456 83.456h846.336c46.08 0 83.456-37.376 83.456-83.456V185.856c0-46.08-37.376-83.456-83.456-83.456zM91.136 163.84h846.336c12.288 0 22.016 9.728 22.016 22.016v437.248L762.88 448.512c-10.752-9.728-27.136-10.24-38.912-1.536L479.744 630.272l-129.536-92.16c-10.24-7.68-24.576-7.68-35.328 0L69.12 712.192V185.856c0-12.288 9.728-22.016 22.016-22.016z m846.336 699.904H91.136c-12.288 0-22.016-9.728-22.016-22.016v-54.272L332.8 601.088l247.808 176.64c13.824 9.728 33.28 6.656 43.008-7.168 9.728-13.824 6.656-33.28-7.168-43.008l-84.48-59.904 208.896-156.672L952.32 698.88c2.048 2.048 4.608 3.072 7.168 4.608v138.24c0 12.288-9.728 22.016-22.016 22.016z" p-id="2081" fill="#ffffff"></path><path d="M312.32 471.04c70.656 0 128-57.344 128-128s-57.344-128-128-128-128 57.344-128 128 57.344 128 128 128z m0-194.56c36.864 0 66.56 29.696 66.56 66.56s-29.696 66.56-66.56 66.56-66.56-29.696-66.56-66.56 29.696-66.56 66.56-66.56z" p-id="2082" fill="#ffffff"></path></svg>