<?xml version="1.0" standalone="no"?><!DOCTYPE svg PUBLIC "-//W3C//DTD SVG 1.1//EN" "http://www.w3.org/Graphics/SVG/1.1/DTD/svg11.dtd"><svg t="1560328054940" class="icon" style="" viewBox="0 0 1024 1024" version="1.1" xmlns="http://www.w3.org/2000/svg" p-id="3261" xmlns:xlink="http://www.w3.org/1999/xlink" width="64" height="64"><defs><style type="text/css"></style></defs><path d="M731.525071 938.64675c-11.711897 0-23.499793-1.271989-35.036692-3.777967-88.561222-19.242831-144.956726-106.94806-125.713896-195.509281 8.01393-36.885676 28.660748-70.130384 58.136489-93.610178 29.046745-23.139797 65.391425-35.881685 102.337101-35.881684 11.710897 0 23.499793 1.270989 35.035692 3.777967 42.900623 9.320918 79.6043 34.790694 103.349092 71.717369 23.743791 36.926675 31.686722 80.890289 22.365803 123.790912-8.01393 36.885676-28.660748 70.130384-58.136489 93.610178-29.046745 23.138797-65.390425 35.882685-102.3371 35.882684z m-0.274998-285.673489c-56.549503 0-106.323066 40.179647-118.35096 95.53816-14.194875 65.335426 27.408759 130.037857 92.744185 144.233733a122.153926 122.153926 0 0 0 25.882773 2.794975c56.548503 0 106.323066-40.179647 118.350959-95.53916 6.87594-31.648722 1.015991-64.082437-16.499855-91.324198-17.517846-27.242761-44.594608-46.032595-76.244329-52.908535a122.160926 122.160926 0 0 0-25.882773-2.794975z" p-id="3262" fill="#ffffff"></path><path d="M762.573798 656.262232c-1.515987 0-3.054973-0.160999-4.59696-0.496996-11.631898-2.526978-19.012833-14.004877-16.485855-25.636774l13.284883-61.143463c2.527978-11.632898 14.010877-19.012833 25.637775-16.485855 11.631898 2.527978 19.012833 14.005877 16.485855 25.637775l-13.284883 61.143462c-2.191981 10.089911-11.119902 16.981851-21.040815 16.981851zM684.782481 1010.40012c-1.515987 0-3.054973-0.161999-4.597959-0.495996-11.631898-2.526978-19.011833-14.005877-16.484855-25.638775l13.285883-61.142462c2.526978-11.631898 14.011877-19.013833 25.637775-16.484855 11.632898 2.527978 19.012833 14.005877 16.485855 25.637774l-13.285884 61.142463c-2.191981 10.089911-11.119902 16.981851-21.040815 16.981851zM936.716267 849.058538c-1.541986 0-3.105973-0.165999-4.674959-0.512996l-61.092463-13.509881c-11.622898-2.570977-18.959833-14.076876-16.390856-25.699774 2.570977-11.622898 14.073876-18.961833 25.699774-16.390856l61.092463 13.510881c11.622898 2.569977 18.960833 14.075876 16.390856 25.698774-2.22398 10.055912-11.135902 16.903851-21.024815 16.903852zM583.940368 771.049223c-1.541986 0-3.105973-0.166999-4.673959-0.513995l-61.094463-13.510882c-11.622898-2.570977-18.960833-14.075876-16.390856-25.698774 2.570977-11.621898 14.075876-18.959833 25.698774-16.390856l61.093463 13.510882c11.622898 2.569977 18.960833 14.075876 16.390856 25.698774-2.22398 10.054912-11.134902 16.904851-21.023815 16.904851zM854.52599 721.146662c-7.006938 0-13.878878-3.41197-18.019842-9.701915-6.546942-9.940913-3.795967-23.307795 6.145946-29.853738l52.256541-34.414697c9.941913-6.544942 23.308795-3.792967 29.853737 6.146946 6.547942 9.940913 3.795967 23.307795-6.144946 29.854738l-52.25654 34.413697a21.463811 21.463811 0 0 1-11.834896 3.554969zM552.781642 919.858915c-7.007938 0-13.878878-3.41197-18.020842-9.701914-6.546942-9.940913-3.794967-23.307795 6.145946-29.853738l52.254541-34.412698c9.942913-6.546942 23.308795-3.794967 29.854737 6.145946 6.546942 9.940913 3.794967 23.307795-6.145946 29.854738l-52.25354 34.411698a21.459811 21.459811 0 0 1-11.834896 3.555968zM845.691067 980.72338c-7.034938 0-13.929878-3.43897-18.063841-9.768914L793.409527 918.572927c-6.509943-9.964912-3.708967-23.320795 6.255945-29.831738 9.964912-6.507943 23.321795-3.708967 29.831737 6.256945l34.2187 52.381539c6.509943 9.964912 3.708967 23.321795-6.256945 29.830738a21.446812 21.446812 0 0 1-11.767897 3.512969zM648.089804 678.250039c-7.033938 0-13.928878-3.43797-18.063841-9.768914l-34.2187-52.38254c-6.509943-9.964912-3.708967-23.321795 6.255945-29.831738 9.964912-6.508943 23.320795-3.708967 29.831738 6.257945l34.218699 52.38254c6.510943 9.964912 3.709967 23.321795-6.255945 29.831738a21.458811 21.458811 0 0 1-11.767896 3.510969zM696.604378 281.624525H238.682402c-11.045903 0-19.999824-8.953921-19.999824-19.999824s8.953921-19.999824 19.999824-19.999825h457.921976c11.045903 0 19.999824 8.953921 19.999824 19.999825s-8.954921 19.999824-19.999824 19.999824zM636.873902 480.721775H238.682402c-11.045903 0-19.999824-8.953921-19.999824-19.999824s8.953921-19.999824 19.999824-19.999825h398.1915c11.045903 0 19.999824 8.953921 19.999825 19.999825s-8.953921 19.999824-19.999825 19.999824zM517.415952 679.820025H238.682402c-11.045903 0-19.999824-8.953921-19.999824-19.999824s8.953921-19.999824 19.999824-19.999824h278.73355c11.045903 0 19.999824 8.953921 19.999825 19.999824s-8.953921 19.999824-19.999825 19.999824z" p-id="3263" fill="#ffffff"></path><path d="M464.680416 977.534408H92.349688c-16.475855 0-29.879737-13.403882-29.879737-29.879737V51.574547c0-16.475855 13.403882-29.879737 29.879737-29.879738h749.561412c16.475855 0 29.878737 13.403882 29.878738 29.879738V576.994929c0 11.044903-8.953921 19.999824-19.999824 19.999824s-19.999824-8.954921-19.999825-19.999824V61.694458H102.469599v875.841302h362.210817c11.045903 0 19.999824 8.954921 19.999824 19.999824s-8.953921 19.998824-19.999824 19.998824z" p-id="3264" fill="#ffffff"></path></svg>