<?xml version="1.0" standalone="no"?><!DOCTYPE svg PUBLIC "-//W3C//DTD SVG 1.1//EN" "http://www.w3.org/Graphics/SVG/1.1/DTD/svg11.dtd"><svg t="1572501608165" class="icon" viewBox="0 0 1024 1024" version="1.1" xmlns="http://www.w3.org/2000/svg" p-id="1779" width="128" height="128" xmlns:xlink="http://www.w3.org/1999/xlink"><defs><style type="text/css"></style></defs><path d="M280.064 836.928" p-id="1780"></path><path d="M327.104 836.928" p-id="1781"></path><path d="M901.12 0 839.68 0l0 20.48 61.376 0L901.056 0 901.12 0 901.12 0zM778.304 0l-61.376 0 0 20.48 61.376 0L778.304 0 778.304 0 778.304 0zM655.552 0 594.176 0l0 20.48 61.376 0L655.552 0 655.552 0 655.552 0zM532.8 0 471.424 0l0 20.48 61.376 0L532.8 0 532.8 0 532.8 0zM410.048 0 348.672 0l0 20.48 61.376 0L410.048 0 410.048 0 410.048 0zM287.296 0 225.92 0l0 20.48 61.376 0L287.296 0 287.296 0 287.296 0zM164.544 0 103.104 0l0 20.48 61.376 0L164.48 0 164.544 0 164.544 0zM41.728 0l-41.6 0 0 20.48 41.6 0L41.728 0 41.728 0 41.728 0zM20.608 81.152l-20.48 0 0 61.376 20.48 0L20.608 81.152 20.608 81.152 20.608 81.152zM20.608 203.904l-20.48 0 0 61.376 20.48 0L20.608 203.904 20.608 203.904 20.608 203.904zM20.608 326.656l-20.48 0 0 61.376 20.48 0L20.608 326.656 20.608 326.656 20.608 326.656zM20.608 449.472l-20.48 0 0 61.376 20.48 0L20.608 449.472 20.608 449.472 20.608 449.472zM20.608 572.224l-20.48 0L0.128 633.6l20.48 0L20.608 572.224 20.608 572.224 20.608 572.224zM20.608 694.976l-20.48 0 0 61.376 20.48 0L20.608 694.976 20.608 694.976 20.608 694.976zM20.608 817.728l-20.48 0 0 61.376 20.48 0L20.608 817.728 20.608 817.728 20.608 817.728zM20.608 940.544l-20.48 0 0 61.376 20.48 0L20.608 940.544 20.608 940.544 20.608 940.544zM101.056 1003.264 39.68 1003.264l0 20.48 61.376 0L101.056 1003.264 101.056 1003.264 101.056 1003.264zM223.808 1003.264 162.432 1003.264l0 20.48 61.376 0L223.808 1003.264 223.808 1003.264 223.808 1003.264zM346.56 1003.264 285.184 1003.264l0 20.48 61.376 0L346.56 1003.264 346.56 1003.264 346.56 1003.264zM469.312 1003.264 408 1003.264l0 20.48 61.376 0L469.376 1003.264 469.312 1003.264 469.312 1003.264zM592.128 1003.264 530.752 1003.264l0 20.48 61.376 0L592.128 1003.264 592.128 1003.264 592.128 1003.264zM714.88 1003.264l-61.376 0 0 20.48 61.376 0L714.88 1003.264 714.88 1003.264 714.88 1003.264zM837.632 1003.264l-61.376 0 0 20.48 61.376 0L837.632 1003.264 837.632 1003.264 837.632 1003.264zM960.384 1003.264l-61.376 0 0 20.48 61.376 0L960.384 1003.264 960.384 1003.264 960.384 1003.264zM1023.872 964.416l-20.48 0 0 59.328 18.368 0 0 0-18.368 0 18.368 0 0 0 2.112 0L1023.872 964.416 1023.872 964.416 1023.872 964.416zM1023.872 841.664l-20.48 0 0 61.376 20.48 0L1023.872 841.664 1023.872 841.664 1023.872 841.664zM1023.872 718.912l-20.48 0 0 61.376 20.48 0L1023.872 718.912 1023.872 718.912 1023.872 718.912zM1023.872 596.16l-20.48 0 0 61.376 20.48 0L1023.872 596.16 1023.872 596.16 1023.872 596.16zM1023.872 473.408l-20.48 0 0 61.376 20.48 0L1023.872 473.408 1023.872 473.408 1023.872 473.408zM1023.872 350.592l-20.48 0 0 61.376 20.48 0L1023.872 350.592 1023.872 350.592 1023.872 350.592zM1023.872 227.84l-20.48 0 0 61.376 20.48 0L1023.872 227.84 1023.872 227.84 1023.872 227.84zM1023.872 105.088l-20.48 0 0 61.376 20.48 0L1023.872 105.088 1023.872 105.088 1023.872 105.088zM1023.872 0l-61.376 0 0 20.48 40.96 0 0 23.232 20.48 0L1023.936 0 1023.872 0 1023.872 0z" p-id="1782"></path><path d="M705.344 499.008 524.864 499.008 524.864 318.528 499.072 318.528 499.072 499.008 318.656 499.008 318.656 524.736 499.072 524.736 499.072 705.216 524.864 705.216 524.864 524.736 705.344 524.736 705.344 499.008Z" p-id="1783"></path></svg>