<?xml version="1.0" standalone="no"?><!DOCTYPE svg PUBLIC "-//W3C//DTD SVG 1.1//EN" "http://www.w3.org/Graphics/SVG/1.1/DTD/svg11.dtd"><svg t="1586485543336" class="icon" viewBox="0 0 1024 1024" version="1.1" xmlns="http://www.w3.org/2000/svg" p-id="2792" xmlns:xlink="http://www.w3.org/1999/xlink" width="200" height="200"><defs><style type="text/css"></style></defs><path d="M512 64C264.59 64 64 264.56 64 512s200.59 448 448 448 448-200.59 448-448S759.45 64 512 64z m0 828.8c-210.31 0-380.8-170.49-380.8-380.8S301.69 131.2 512 131.2 892.8 301.7 892.8 512 722.31 892.8 512 892.8z m-75.53-369.4H365l207-207a30.62 30.62 0 1 0-43.3-43.3L319.88 481.92v-71.49a30.64 30.64 0 0 0-61.28 0v142.85a29.71 29.71 0 0 0 6.06 17.5c0.19 0.3 0.36 0.6 0.56 0.88a27.84 27.84 0 0 0 2.37 2.91c0.45 0.53 0.81 1.1 1.3 1.6a30.56 30.56 0 0 0 27.15 8.45h140.37a30.62 30.62 0 1 0 0-61.24z m328.89-44.32a29.75 29.75 0 0 0-6-17.32c-0.24-0.38-0.47-0.77-0.73-1.16a29.83 29.83 0 0 0-2.24-2.75c-0.48-0.53-0.84-1.13-1.36-1.66a30.55 30.55 0 0 0-27.03-8.44H587.53a30.62 30.62 0 1 0 0 61.23H659L452 716a30.61 30.61 0 1 0 43.3 43.29l208.8-208.8v71.48a30.64 30.64 0 0 0 61.28 0z" p-id="2793" fill="#ffffff"></path></svg>